<svg height="990" width="720" xmlns="http://www.w3.org/2000/svg">
<rect height="990" fill="#555" width="720"></rect>
<text fill="#7f7" font-family="Courier New" font-size="12" xml:space="preserve">
<tspan x="10" y="26">8 megabytes installed</tspan>
<tspan x="10" y="42"></tspan>
<tspan x="10" y="58">node_modules</tspan>
<tspan x="10" y="74">└─┬ fcm-node@1.2.0 </tspan>
<tspan x="10" y="90">  ├─┬ firebase-admin@4.2.1 </tspan>
<tspan x="10" y="106">  │ ├── @types/jsonwebtoken@7.2.0 </tspan>
<tspan x="10" y="122">  │ ├── @types/node@7.0.12 </tspan>
<tspan x="10" y="138">  │ ├── base64url@2.0.0 </tspan>
<tspan x="10" y="154">  │ ├── buffer-equal-constant-time@1.0.1 </tspan>
<tspan x="10" y="170">  │ ├── ecdsa-sig-formatter@1.0.9 </tspan>
<tspan x="10" y="186">  │ ├── faye-websocket@0.9.3 </tspan>
<tspan x="10" y="202">  │ ├── hoek@2.16.3 </tspan>
<tspan x="10" y="218">  │ ├── isemail@1.2.0 </tspan>
<tspan x="10" y="234">  │ ├── joi@6.10.1 </tspan>
<tspan x="10" y="250">  │ ├── jsonwebtoken@7.1.9 </tspan>
<tspan x="10" y="266">  │ ├── jwa@1.1.5 </tspan>
<tspan x="10" y="282">  │ ├── jws@3.1.4 </tspan>
<tspan x="10" y="298">  │ ├── lodash.once@4.1.1 </tspan>
<tspan x="10" y="314">  │ ├── moment@2.18.1 </tspan>
<tspan x="10" y="330">  │ ├── ms@0.7.3 </tspan>
<tspan x="10" y="346">  │ ├── safe-buffer@5.0.1 </tspan>
<tspan x="10" y="362">  │ ├── topo@1.1.0 </tspan>
<tspan x="10" y="378">  │ ├── websocket-driver@0.6.5 </tspan>
<tspan x="10" y="394">  │ ├── websocket-extensions@0.1.1 </tspan>
<tspan x="10" y="410">  │ └── xtend@4.0.1 </tspan>
<tspan x="10" y="426">  ├─┬ mocha@3.2.0 </tspan>
<tspan x="10" y="442">  │ ├── browser-stdout@1.3.0 </tspan>
<tspan x="10" y="458">  │ ├─┬ commander@2.9.0 </tspan>
<tspan x="10" y="474">  │ │ └── graceful-readlink@1.0.1 </tspan>
<tspan x="10" y="490">  │ ├─┬ debug@2.2.0 </tspan>
<tspan x="10" y="506">  │ │ └── ms@0.7.1 </tspan>
<tspan x="10" y="522">  │ ├── diff@1.4.0 </tspan>
<tspan x="10" y="538">  │ ├── escape-string-regexp@1.0.5 </tspan>
<tspan x="10" y="554">  │ ├─┬ glob@7.0.5 </tspan>
<tspan x="10" y="570">  │ │ ├── fs.realpath@1.0.0 </tspan>
<tspan x="10" y="586">  │ │ ├─┬ inflight@1.0.6 </tspan>
<tspan x="10" y="602">  │ │ │ └── wrappy@1.0.2 </tspan>
<tspan x="10" y="618">  │ │ ├── inherits@2.0.3 </tspan>
<tspan x="10" y="634">  │ │ ├─┬ minimatch@3.0.3 </tspan>
<tspan x="10" y="650">  │ │ │ └─┬ brace-expansion@1.1.7 </tspan>
<tspan x="10" y="666">  │ │ │   ├── balanced-match@0.4.2 </tspan>
<tspan x="10" y="682">  │ │ │   └── concat-map@0.0.1 </tspan>
<tspan x="10" y="698">  │ │ ├── once@1.4.0 </tspan>
<tspan x="10" y="714">  │ │ └── path-is-absolute@1.0.1 </tspan>
<tspan x="10" y="730">  │ ├── growl@1.9.2 </tspan>
<tspan x="10" y="746">  │ ├── json3@3.3.2 </tspan>
<tspan x="10" y="762">  │ ├─┬ lodash.create@3.1.1 </tspan>
<tspan x="10" y="778">  │ │ ├─┬ lodash._baseassign@3.2.0 </tspan>
<tspan x="10" y="794">  │ │ │ ├── lodash._basecopy@3.0.1 </tspan>
<tspan x="10" y="810">  │ │ │ └─┬ lodash.keys@3.1.2 </tspan>
<tspan x="10" y="826">  │ │ │   ├── lodash._getnative@3.9.1 </tspan>
<tspan x="10" y="842">  │ │ │   ├── lodash.isarguments@3.1.0 </tspan>
<tspan x="10" y="858">  │ │ │   └── lodash.isarray@3.0.4 </tspan>
<tspan x="10" y="874">  │ │ ├── lodash._basecreate@3.0.3 </tspan>
<tspan x="10" y="890">  │ │ └── lodash._isiterateecall@3.0.9 </tspan>
<tspan x="10" y="906">  │ ├─┬ mkdirp@0.5.1 </tspan>
<tspan x="10" y="922">  │ │ └── minimist@0.0.8 </tspan>
<tspan x="10" y="938">  │ └─┬ supports-color@3.1.2 </tspan>
<tspan x="10" y="954">  │   └── has-flag@1.0.0 </tspan>
<tspan x="10" y="970">  └── retry@0.9.0</tspan>
</text>
</svg>
